<?xml version="1.0" encoding="utf-8"?>
<!-- Generator: Adobe Illustrator 16.0.0, SVG Export Plug-In . SVG Version: 6.00 Build 0)  -->
<!DOCTYPE svg PUBLIC "-//W3C//DTD SVG 1.1//EN" "http://www.w3.org/Graphics/SVG/1.1/DTD/svg11.dtd">
<svg version="1.1" id="Layer_1" xmlns="http://www.w3.org/2000/svg" xmlns:xlink="http://www.w3.org/1999/xlink" x="0px" y="0px"
	 width="64px" height="64px" viewBox="0 0 64 64" enable-background="new 0 0 64 64" xml:space="preserve">
<g id="_828176704">
	<polygon fill="#737373" points="39.667,19.839 39.667,19.49 38.538,19.292 	"/>
	<circle fill="#22AC38" cx="32.066" cy="32.477" r="12.704"/>
	<path fill="#00913A" d="M41.004,37.537c0.326-0.651,0.489-1.296,0.726-1.94c-0.236,1.378-0.325,2.829-0.97,4.206
		c-0.645,1.614-1.939,2.829-3.154,3.962c0.163,0,0.481,0,0.645,0.081c-4.851,1.288-9.945-0.163-14.469-2.103
		c0.074,0,0.318,0.081,0.4,0.081c-0.726-1.377-1.54-2.747-1.777-4.287c0.888,1.214,1.695,2.503,2.991,3.317
		c1.614,1.052,3.643,1.288,5.583,0.889c-0.407-0.082-0.815-0.245-1.214-0.326c1.125,0,2.339,0,3.48-0.488
		c1.207-0.481,2.177-1.533,2.828-2.585c1.215-0.244,2.429-0.244,3.636-0.318C40.115,37.937,40.679,37.937,41.004,37.537z"/>
	<polygon fill="#009944" points="32,27.017 34.579,22.374 34.491,27.685 39.047,24.953 36.315,29.508 41.627,29.42 36.982,32 
		41.627,34.578 36.315,34.491 39.047,39.047 34.491,36.314 34.579,41.627 32,36.982 29.42,41.627 29.509,36.314 24.954,39.047 
		27.684,34.491 22.374,34.578 27.018,32 22.374,29.42 27.684,29.508 24.954,24.953 29.509,27.685 29.42,22.374 	"/>
	<path fill="#0A0909" d="M22.737,25.368l3.108-2.764l2.074-1.04c1.006-0.694,2.459-1.034,4.149-1.034h1.379
		c5.567,0,8.656,6.844,9.618,7.257l0.403,5.178v1.04c0,5.203-8.819,12.846-13.82,9.672c-4.986-0.414-9.332-6.099-9.332-11.746
		v-0.689C20.318,29.708,21.954,26.27,22.737,25.368z M4.773,34.351l0.345,0.344l3.522-4.05l0.276,0.247
		c-0.305,1.325-2.364,4.869-3.153,6.869c-0.275,0.693-1.113,3.015-1.522,3.655c-0.379,0.592-2.231,2.587-2.231,2.951
		c0,1.064,1.01,1.384,2.074,1.384c2.754,0,3.986-5.853,5.07-8.404c1.251-2.946,3.4-6.347,5.292-8.524l1.039-1.04l3.109-3.109
		c-0.636,2.724-2.074,3.325-2.074,7.602v0.69c0,7.539,6.794,14.51,14.165,14.51h2.074c7.386,0,14.165-7.047,14.165-14.51v-0.69
		c0-6.1-3.577-9.972-7.257-12.436l-1.129-0.547l1.129,0.198l3.803,0.694l10.362,4.144c-0.182,8.223-6.061,18.087-10.618,22.205
		c-5.897,5.322-16.964,5.091-28.074,5.091v0.331l9.326,0.704h3.454c10.416,0,17.827-4.326,22.32-10.5
		c2.024-2.784,4.537-7.307,5.458-11.13c0.282-1.163,1.315-5.986,1.843-6.445c1.76-1.522,2.907-1.202,4.583-3.709
		c-1.099-1.646-13.357-5.804-16.585-5.873l-0.044-0.35l7.992-1.035c-1.588-1.375-8.578-1.724-11.747-1.724
		c-9.893,0-16.86,2.857-22.871,6.838C14.958,21.322,5.985,29.802,4.773,34.351z"/>
	<polygon fill="#737373" points="5.118,34.694 4.773,34.351 3.487,36.843 	"/>
	<path fill="#DEDEDE" d="M15.484,27.782l-0.344,3.803v2.07c0,7.721,7.922,14.859,15.889,14.859h1.385
		c5.818,0,8.193-3.822,10.71-4.492c2.465-1.651,5.18-6.579,5.18-10.713v-3.108c0-2.971-4.888-9.893-4.834-10.017l-3.803-0.694v0.349
		c3.68,2.464,7.257,6.336,7.257,12.436v0.69c0,7.463-6.779,14.51-14.165,14.51h-2.074c-7.371,0-14.165-6.972-14.165-14.51v-0.69
		c0-4.277,1.438-4.878,2.074-7.602L15.484,27.782z"/>
	<path fill="#A1A1A1" d="M14.445,28.822l-0.01,2.759c-1.024,9.199,8.41,17.624,16.939,17.624c4.203,0,10.046-2.636,11.75-5.182
		c-2.517,0.67-4.892,4.492-10.71,4.492h-1.385c-7.967,0-15.889-7.139-15.889-14.859v-2.07l0.344-3.803L14.445,28.822z"/>
	<circle fill="#C8E4CF" cx="26.196" cy="26.27" r="2.689"/>
	<circle fill="#202122" cx="32.001" cy="32" r="5.355"/>
	<circle fill="#C8E4CF" cx="23.173" cy="32.476" r="1.595"/>
</g>
</svg>
